<svg width="317" height="87" viewBox="0 0 317 87" fill="none" xmlns="http://www.w3.org/2000/svg">
<path d="M0.785156 44.8565V39.2802H51.0494V44.8565H31.4299V52.8723C33.4276 51.2459 35.35 50.452 37.197 50.4908C38.2525 50.5296 40.0618 51.7494 42.6249 54.1502C45.188 56.5125 46.9973 58.5067 48.0527 60.1331C49.2966 62.108 49.127 64.7992 47.5439 68.207C45.9985 71.6148 44.0762 74.0544 41.7768 75.5258L36.2358 71.2855C38.2335 70.24 39.9675 68.3039 41.4375 65.477C42.9829 62.4177 43.3221 60.0362 42.4553 58.3324C41.5506 56.6286 39.4586 56.2994 36.1793 57.3449C34.5962 57.887 33.0131 59.0101 31.4299 60.7139V78.4301L24.4189 75.1773V67.51C21.9312 69.9108 19.7073 71.1113 17.7472 71.1113C17.1441 71.1113 16.5222 71.0144 15.8814 70.8209C15.2406 70.5885 14.5621 70.2207 13.8459 69.7172C13.1298 69.2137 12.5078 68.7686 11.9801 68.3813C11.4524 67.9554 10.7739 67.3357 9.94466 66.5225C9.1531 65.6705 8.55 65.0511 8.13538 64.6638C7.75844 64.2379 7.1365 63.5601 6.26955 62.6308C5.44029 61.6626 4.91259 61.0624 4.68643 60.8301C4.46027 60.5978 4.34719 55.2731 4.34719 44.8565H0.785156ZM11.4147 63.1535C13.0355 64.7799 15.2406 65.0123 18.0299 63.8506C20.8192 62.6888 22.9489 60.8301 24.4189 58.2743V44.8565H11.3016L11.4147 63.1535ZM59.8038 39.2802H66.1929V44.8565H61.8393V78.4882L54.8283 75.2354V44.8565H50.5312V39.2802H57.3726C54.9601 35.95 52.661 33.704 50.4747 32.5423C48.0247 31.187 44.538 31.3999 40.0148 33.1812L36.0004 28.5344C37.9228 27.9148 40.1278 27.4695 42.6156 27.1984C45.0656 26.8886 46.8374 26.8305 47.9304 27.0241C48.6842 27.2177 49.4757 27.605 50.3051 28.1859C51.1344 28.728 52.039 29.5606 53.019 30.6835C53.999 31.7678 54.7717 32.6585 55.3372 33.3555C55.9026 34.0525 56.7319 35.1562 57.8249 36.6664C58.9557 38.1379 59.6154 39.0092 59.8038 39.2802ZM64.9291 44.8565V39.2802H97.157V44.8565H91.2203V53.1047H78.7249C77.2549 53.1047 76.1053 53.6082 75.276 54.6149C74.4466 55.6217 74.1074 56.7834 74.2582 58.1001C74.4091 59.3779 75.0498 60.3847 76.1806 61.1205C80.1384 58.4874 83.0032 57.2095 84.7747 57.2869C86.1317 57.3257 88.2049 58.7778 90.9941 61.6433C93.8211 64.5088 95.2534 66.3675 95.2912 67.2195C95.3665 69.0395 94.6692 70.7821 93.1992 72.4473C91.7291 74.0737 90.3156 75.158 88.9587 75.7001L84.8312 71.3436C86.6405 70.5304 88.054 69.3687 89.0718 67.8585C90.0895 66.3483 90.1083 64.9735 89.1283 63.7344C88.6007 63.1923 87.8279 62.9405 86.8102 62.9793C85.7924 62.9793 84.6429 63.3085 83.3612 63.9667C82.0796 64.625 80.8734 65.3996 79.7426 66.2902C78.6118 67.1422 77.6694 68.1489 76.9156 69.3106C76.1618 70.4335 75.8036 71.4986 75.8414 72.5053C75.9167 74.3253 76.9722 76.3197 79.0076 78.4882C81.0808 80.6567 83.6061 82.7477 86.584 84.7615L84.9443 86.7945C82.9842 85.3616 81.7028 84.4322 81.0996 84.0063C80.5342 83.5805 79.4034 82.6897 77.7072 81.3344C76.011 80.0177 74.8236 79.011 74.1451 78.3139C73.4667 77.6169 72.6186 76.7068 71.6008 75.5839C70.6209 74.4996 69.9234 73.4928 69.5089 72.5634C69.1319 71.5953 68.9247 70.6659 68.8869 69.7753C68.8491 67.7616 70.6397 65.3415 74.2582 62.5146C72.7504 61.1205 71.5065 59.8814 70.5266 58.7971C69.8481 57.7903 69.6219 56.551 69.8481 55.0796C70.0743 53.6082 70.6584 52.2141 71.6008 50.8974C72.5808 49.5422 73.561 48.8451 74.5409 48.8063L84.9443 48.1674V44.8565H64.9291ZM105.743 39.2802H112.132V44.8565H107.778V78.4882L100.767 75.2354V44.8565H96.4701V39.2802H103.311C100.899 35.95 98.5999 33.704 96.4136 32.5423C93.9636 31.187 90.4769 31.3999 85.9537 33.1812L81.9393 28.5344C83.8617 27.9148 86.0667 27.4695 88.5545 27.1984C91.0045 26.8886 92.7762 26.8305 93.8693 27.0241C94.6231 27.2177 95.4146 27.605 96.244 28.1859C97.0733 28.728 97.9779 29.5606 98.9579 30.6835C99.9379 31.7678 100.711 32.6585 101.276 33.3555C101.841 34.0525 102.671 35.1562 103.764 36.6664C104.895 38.1379 105.554 39.0092 105.743 39.2802ZM111.207 44.8565V39.2802H136.933V44.8565H129.47C131.241 47.6058 132.24 50.3939 132.466 53.2208C132.73 56.009 132.089 58.6035 130.544 61.0044C129.036 63.4052 126.699 65.2058 123.533 66.4063C126.285 70.5111 130.186 73.8413 135.237 76.3971L133.654 78.4882C131.92 77.4814 130.412 76.5521 129.13 75.7001C127.887 74.8869 126.379 73.8025 124.607 72.4473C122.836 71.092 121.309 69.7753 120.028 68.4974C118.784 67.1807 117.559 65.6319 116.352 63.8506C115.146 62.0692 114.223 60.2492 113.582 58.3905C114.411 55.9509 115.278 54.189 116.183 53.1047C116.522 52.6788 117.144 52.6981 118.049 53.1628C118.953 53.6275 119.764 54.2083 120.48 54.9053C120.744 55.1765 120.97 55.8735 121.158 56.9964C121.384 58.0808 121.611 58.894 121.837 59.436C123.345 58.9325 124.513 58.1389 125.342 57.0545C126.172 55.9316 126.661 54.673 126.812 53.2789C126.963 51.8849 126.925 50.4908 126.699 49.0968C126.511 47.7027 126.153 46.2893 125.625 44.8565H111.207ZM155.548 44.8565V39.2802H195.691V44.8565H191.451V78.4882L184.44 75.2354V65.2446H172.736C172.736 67.2195 172.472 68.8847 171.944 70.24C171.454 71.5953 170.832 72.5634 170.078 73.1443C169.362 73.6864 168.571 74.0544 167.704 74.2479C166.837 74.4029 166.083 74.4222 165.442 74.306C164.801 74.1898 164.292 73.9963 163.915 73.7252C161.465 72.0214 159.468 70.2207 157.922 68.3232C157.545 67.8585 157.3 67.2583 157.187 66.5225C157.074 65.7867 157.131 64.993 157.357 64.141C157.583 63.289 157.979 62.4953 158.544 61.7595C159.147 60.9851 160.071 60.3847 161.315 59.9588C162.559 59.4941 164.029 59.3006 165.725 59.3779V44.8565H155.548ZM172.736 59.5522L184.44 59.4941V44.8565H172.736V59.5522ZM165.668 65.0123C164.5 64.8573 163.557 64.993 162.841 65.4189C162.125 65.8448 161.748 66.3483 161.71 66.9291C161.71 67.51 161.861 68.052 162.163 68.5555C162.502 68.8267 162.936 69.0202 163.463 69.1364C163.991 69.2137 164.481 68.8847 164.933 68.1489C165.423 67.4131 165.668 66.3675 165.668 65.0123ZM224.499 75.1773V57.2869C222.841 58.3324 221.088 59.8426 219.241 61.8176C217.432 63.7537 216 65.6705 214.944 67.5681L210.251 63.6182C210.402 62.6115 211.175 61.256 212.57 59.5522C208.725 56.9191 205.785 56.6286 203.749 58.6809C202.166 60.4623 202.147 63.2309 203.693 66.9872C205.276 70.7435 207.669 73.9382 210.873 76.5714L209.347 78.5463C206.331 75.8355 203.354 72.6022 200.413 68.8459C197.473 65.0511 195.89 62.2822 195.664 60.5397C195.513 59.3391 196.135 57.9258 197.53 56.2994C198.925 54.6342 200.527 53.2789 202.336 52.2334C204.145 51.1878 205.559 50.8393 206.576 51.1878C208.31 51.8075 210.892 53.976 214.322 57.6935C215.868 56.1832 217.564 54.8665 219.411 53.7436C221.258 52.6207 222.953 51.943 224.499 51.7106V44.8565H194.251V39.2802H235.92V44.8565H231.512V78.4301L224.499 75.1773ZM235.39 44.8565V39.2802H251.053V44.8565H246.7V78.4882L239.688 75.2354V44.8565H235.39ZM250.574 44.8565V39.2802H271.496C269.422 38.3121 267.556 36.9955 265.897 35.3304C264.276 33.6266 263.466 32.1744 263.466 30.974C263.466 29.154 264.541 27.4307 266.69 25.8043C268.837 24.1392 270.836 23.3066 272.682 23.3066C273.7 23.3066 276.49 25.0686 281.051 28.5925L280.145 29.9865C277.13 28.2439 274.981 27.3727 273.7 27.3727C272.795 27.3727 271.929 27.9342 271.099 29.0571C270.27 30.1801 269.855 31.2644 269.855 32.3099C269.855 32.6197 269.893 32.9295 269.968 33.2393C270.043 33.5104 270.195 33.8202 270.421 34.1687C270.686 34.5172 270.891 34.827 271.043 35.0981C271.231 35.3304 271.534 35.6596 271.947 36.0855C272.4 36.5115 272.74 36.8406 272.965 37.073C273.192 37.2666 273.605 37.6345 274.208 38.1766C274.811 38.68 275.227 39.0479 275.454 39.2802H284.613V44.8565H276.132L276.302 52.9304H263.693C262.788 52.9304 262.052 53.6855 261.487 55.1958C260.809 56.9383 260.846 58.255 261.602 59.1456C262.167 59.8038 263.015 59.9781 264.146 59.6684C264.672 59.5134 265.88 59.1263 267.764 58.5067C269.685 57.8484 271.344 57.3449 272.74 56.9964C274.133 56.6091 274.964 56.4929 275.227 56.6479C277.753 58.5455 280.353 60.8689 283.03 63.6182C283.292 63.8894 283.445 64.3152 283.482 64.8961C283.557 65.4382 283.5 66.0771 283.312 66.8129C283.124 67.51 282.842 68.2651 282.464 69.0783C282.086 69.8527 281.541 70.6273 280.825 71.4017C280.145 72.1375 279.372 72.8346 278.506 73.4928C277.676 74.1125 276.66 74.6352 275.454 75.0611C274.283 75.487 273.04 75.7389 271.721 75.8162C276.207 79.5725 279.412 82.0895 281.333 83.3674L279.127 85.807C275.472 82.3607 271.816 79.069 268.159 75.9324C267.934 75.9324 267.293 75.9905 266.238 76.1067C265.182 76.2228 264.409 76.2809 263.918 76.2809C263.428 76.2809 262.77 76.2809 261.94 76.2809C261.149 76.2809 260.508 76.184 260.018 75.9905C259.528 75.8355 259.132 75.6032 258.83 75.2935C256.643 73.3573 255.55 71.5567 255.55 69.8915C255.55 69.4268 256.003 68.7491 256.908 67.8585C257.812 66.9679 258.717 66.4063 259.623 66.174C260.376 66.5613 262.297 68.0135 265.389 70.5304C267.651 70.9951 269.968 70.7435 272.344 69.7753C274.756 68.7686 276.527 67.51 277.658 65.9997C278.789 64.4507 278.884 63.1923 277.941 62.2242C277.338 61.6045 276.357 61.5078 275.001 61.9337C273.643 62.321 272.287 62.9212 270.931 63.7344C269.573 64.5476 268.179 65.1865 266.746 65.6512C265.352 66.0771 264.314 66.019 263.636 65.477C259.64 62.1854 256.908 59.7265 255.437 58.1001C254.759 57.0933 254.534 55.854 254.759 54.3826C254.985 52.9111 255.57 51.5171 256.513 50.2004C257.491 48.8451 258.472 48.1286 259.453 48.0512L269.855 47.4123V44.8565H250.574Z" fill="url(#paint0_linear_995_1104)"/>
<mask id="mask0_995_1104" style="mask-type:luminance" maskUnits="userSpaceOnUse" x="273" y="0" width="44" height="42">
<path d="M273.407 25.918L303.215 0.900556L316.234 16.413L286.427 41.4304L273.407 25.918Z" fill="white"/>
</mask>
<g mask="url(#mask0_995_1104)">
<path d="M302.655 26.6222C296.154 35.2989 283.284 36.6273 283.284 36.6273C283.284 36.6273 280.958 23.8945 287.454 15.2174C293.955 6.54577 306.825 5.21235 306.825 5.21235C306.825 5.21235 309.156 17.9455 302.655 26.6222Z" fill="#71B423"/>
<path d="M302.655 26.6222C296.154 35.2989 283.284 36.6273 283.284 36.6273C283.284 36.6273 280.958 23.8945 287.454 15.2174C293.955 6.54577 306.825 5.21235 306.825 5.21235C306.825 5.21235 309.156 17.9455 302.655 26.6222Z" fill="#71B423"/>
</g>
<path d="M299.224 28.6341C297.566 30.0257 295.601 30.9898 294.198 29.6089C291.769 27.2297 292.712 22.4524 294.001 19.7983C295.83 16.0326 298.211 12.823 301.329 10.2061C302.103 9.55654 302.93 8.94221 303.8 8.36226C304.51 7.89338 305.267 7.37506 305.667 7.03986C305.851 6.88498 305.956 6.76904 305.95 6.7175C306.28 9.10218 307.213 18.7321 302.081 25.5835C301.538 26.3119 300.464 27.5938 299.224 28.6341Z" fill="#A9CF16"/>
<mask id="mask1_995_1104" style="mask-type:luminance" maskUnits="userSpaceOnUse" x="286" y="0" width="22" height="20">
<path d="M286.803 14.6719L303.213 0.898657L307.356 5.83444L290.945 19.6077L286.803 14.6719Z" fill="white"/>
</mask>
<g mask="url(#mask1_995_1104)">
<path d="M306.834 5.26856C306.834 5.26856 306.834 5.26856 306.832 5.26581C306.827 5.23221 306.824 5.21151 306.824 5.21151L306.834 5.26856ZM287.453 15.2165C288.4 13.9568 289.477 12.8512 290.633 11.8854C289.479 12.854 288.4 13.9568 287.453 15.2165Z" fill="#D3D2D2"/>
</g>
<mask id="mask2_995_1104" style="mask-type:luminance" maskUnits="userSpaceOnUse" x="273" y="0" width="43" height="41">
<path d="M273.407 25.918L303.215 0.900556L315.051 15.0028L285.243 40.0202L273.407 25.918Z" fill="white"/>
</mask>
<g mask="url(#mask2_995_1104)">
<path d="M290.031 35.0448C286.241 36.3192 283.282 36.6247 283.282 36.6247C283.282 36.6247 280.956 23.8919 287.452 15.2148C288.399 13.955 289.478 12.8522 290.632 11.8836L290.635 11.8813C297.425 6.18294 306.823 5.20979 306.823 5.20979C306.823 5.20979 306.827 5.23049 306.831 5.26409C303.148 6.46856 299.741 8.56756 296.771 11.0596C296.251 11.4965 295.742 11.9472 295.248 12.4043C291.272 16.1075 287.92 20.2583 286.663 25.6463C285.862 29.0935 287.439 32.7178 289.973 34.999L290.031 35.0448Z" fill="#5D951C"/>
</g>
<defs>
<linearGradient id="paint0_linear_995_1104" x1="-17.9564" y1="58.6718" x2="334.571" y2="100.326" gradientUnits="userSpaceOnUse">
<stop stop-color="#4CAF50"/>
<stop offset="1" stop-color="#007800"/>
</linearGradient>
</defs>
</svg>
