<svg width="86" height="23" viewBox="0 0 86 23" fill="none" xmlns="http://www.w3.org/2000/svg">
<path d="M0.785156 11.7704V10.2772H14.2443V11.7704H8.99084V13.9167C9.52576 13.4812 10.0405 13.2687 10.5351 13.279C10.8177 13.2894 11.3022 13.6161 11.9885 14.2589C12.6748 14.8915 13.1593 15.4254 13.4419 15.8609C13.775 16.3898 13.7296 17.1104 13.3056 18.0229C12.8918 18.9354 12.3771 19.5886 11.7614 19.9826L10.2777 18.8472C10.8126 18.5672 11.2769 18.0488 11.6706 17.2919C12.0844 16.4727 12.1752 15.835 11.9431 15.3788C11.7008 14.9226 11.1407 14.8344 10.2626 15.1144C9.83866 15.2595 9.41475 15.5603 8.99084 16.0165V20.7603L7.11353 19.8893V17.8362C6.44738 18.4791 5.85189 18.8005 5.32705 18.8005C5.16556 18.8005 4.99902 18.7746 4.82744 18.7228C4.65586 18.6606 4.47418 18.5621 4.28241 18.4273C4.09064 18.2924 3.92411 18.1732 3.78281 18.0695C3.6415 17.9555 3.45983 17.7896 3.23778 17.5718C3.02582 17.3437 2.86433 17.1778 2.75331 17.0741C2.65238 16.9601 2.48584 16.7786 2.2537 16.5297C2.03165 16.2705 1.89035 16.1098 1.82979 16.0476C1.76923 15.9854 1.73895 14.5596 1.73895 11.7704H0.785156ZM3.63141 16.6697C4.06541 17.1052 4.65586 17.1674 5.40275 16.8564C6.14963 16.5453 6.7199 16.0476 7.11353 15.3632V11.7704H3.60113L3.63141 16.6697ZM16.5885 10.2772H18.2992V11.7704H17.1335V20.7758L15.2562 19.9049V11.7704H14.1056V10.2772H15.9375C15.2915 9.38549 14.6758 8.78408 14.0904 8.47301C13.4344 8.1101 12.5008 8.16712 11.2896 8.6441L10.2147 7.39982C10.7294 7.23391 11.3199 7.11467 11.986 7.04209C12.642 6.95914 13.1165 6.94358 13.4091 6.99543C13.611 7.04727 13.8229 7.15096 14.045 7.3065C14.2671 7.45166 14.5093 7.6746 14.7717 7.9753C15.0341 8.26563 15.241 8.50412 15.3924 8.69076C15.5438 8.8774 15.7659 9.17292 16.0586 9.57731C16.3614 9.97133 16.538 10.2046 16.5885 10.2772ZM17.9608 11.7704V10.2772H26.5904V11.7704H25.0008V13.979H21.6549C21.2613 13.979 20.9535 14.1138 20.7314 14.3833C20.5093 14.6529 20.4185 14.964 20.4589 15.3166C20.4993 15.6587 20.6708 15.9283 20.9736 16.1253C22.0334 15.4203 22.8005 15.0781 23.2749 15.0988C23.6382 15.1092 24.1934 15.498 24.9402 16.2653C25.6972 17.0326 26.0807 17.5303 26.0908 17.7585C26.111 18.2458 25.9243 18.7124 25.5307 19.1583C25.137 19.5938 24.7585 19.8841 24.3952 20.0293L23.29 18.8628C23.7745 18.645 24.153 18.3339 24.4255 17.9296C24.698 17.5252 24.703 17.157 24.4406 16.8253C24.2993 16.6801 24.0924 16.6127 23.8199 16.6231C23.5474 16.6231 23.2396 16.7112 22.8964 16.8875C22.5532 17.0637 22.2302 17.2711 21.9274 17.5096C21.6246 17.7377 21.3723 18.0073 21.1705 18.3184C20.9686 18.6191 20.8727 18.9043 20.8828 19.1738C20.903 19.6612 21.1856 20.1952 21.7306 20.7758C22.2858 21.3565 22.962 21.9164 23.7593 22.4556L23.3203 23C22.7954 22.6163 22.4523 22.3675 22.2908 22.2534C22.1394 22.1394 21.8366 21.9009 21.3824 21.538C20.9282 21.1854 20.6103 20.9158 20.4286 20.7292C20.2469 20.5425 20.0198 20.2989 19.7473 19.9982C19.4849 19.7078 19.2982 19.4382 19.1872 19.1894C19.0862 18.9301 19.0307 18.6813 19.0206 18.4428C19.0105 17.9036 19.49 17.2556 20.4589 16.4986C20.0551 16.1253 19.7221 15.7936 19.4597 15.5032C19.278 15.2336 19.2174 14.9018 19.278 14.5078C19.3386 14.1138 19.495 13.7405 19.7473 13.3879C20.0097 13.025 20.2722 12.8384 20.5346 12.828L23.3203 12.6569V11.7704H17.9608ZM28.8894 10.2772H30.6002V11.7704H29.4344V20.7758L27.5571 19.9049V11.7704H26.4065V10.2772H28.2384C27.5924 9.38549 26.9768 8.78408 26.3914 8.47301C25.7353 8.1101 24.8017 8.16712 23.5905 8.6441L22.5156 7.39982C23.0304 7.23391 23.6208 7.11467 24.287 7.04209C24.943 6.95914 25.4174 6.94358 25.7101 6.99543C25.9119 7.04727 26.1239 7.15096 26.346 7.3065C26.568 7.45166 26.8103 7.6746 27.0727 7.9753C27.3351 8.26563 27.542 8.50412 27.6934 8.69076C27.8448 8.8774 28.0669 9.17292 28.3595 9.57731C28.6623 9.97133 28.839 10.2046 28.8894 10.2772ZM30.3526 11.7704V10.2772H37.2412V11.7704H35.2427C35.7171 12.5065 35.9846 13.2531 36.0452 14.0101C36.1158 14.7566 35.9442 15.4514 35.5304 16.0942C35.1267 16.7371 34.5009 17.2193 33.6531 17.5407C34.3899 18.6398 35.4345 19.5316 36.787 20.2159L36.3631 20.7758C35.8988 20.5063 35.4951 20.2574 35.1519 20.0293C34.8188 19.8115 34.4151 19.5212 33.9407 19.1583C33.4664 18.7954 33.0576 18.4428 32.7144 18.1006C32.3814 17.7481 32.0533 17.3334 31.7304 16.8564C31.4074 16.3794 31.1601 15.892 30.9885 15.3943C31.2106 14.7411 31.4427 14.2693 31.6849 13.979C31.7758 13.8649 31.9423 13.8701 32.1845 13.9945C32.4268 14.1189 32.6438 14.2745 32.8355 14.4611C32.9062 14.5337 32.9668 14.7204 33.0172 15.021C33.0778 15.3114 33.1383 15.5291 33.1989 15.6743C33.6026 15.5395 33.9155 15.3269 34.1376 15.0366C34.3596 14.7359 34.4908 14.3989 34.5312 14.0256C34.5716 13.6523 34.5615 13.279 34.5009 12.9058C34.4505 12.5325 34.3545 12.154 34.2133 11.7704H30.3526ZM42.2256 11.7704V10.2772H52.9747V11.7704H51.8392V20.7758L49.9619 19.9049V17.2296H46.828C46.828 17.7585 46.7573 18.2044 46.6161 18.5672C46.4848 18.9301 46.3183 19.1894 46.1164 19.3449C45.9247 19.4901 45.7127 19.5886 45.4806 19.6404C45.2485 19.6819 45.0466 19.6871 44.875 19.656C44.7034 19.6249 44.5672 19.5731 44.4662 19.5005C43.8102 19.0442 43.2752 18.5621 42.8614 18.054C42.7605 17.9296 42.6949 17.7689 42.6646 17.5718C42.6343 17.3748 42.6495 17.1623 42.71 16.9341C42.7706 16.706 42.8766 16.4935 43.028 16.2964C43.1895 16.0891 43.4367 15.9283 43.7698 15.8143C44.1029 15.6898 44.4965 15.638 44.9507 15.6587V11.7704H42.2256ZM46.828 15.7054L49.9619 15.6898V11.7704H46.828V15.7054ZM44.9356 17.1674C44.6226 17.1259 44.3704 17.1623 44.1786 17.2763C43.9868 17.3903 43.8859 17.5252 43.8758 17.6807C43.8758 17.8362 43.9162 17.9814 43.9969 18.1162C44.0877 18.1888 44.2038 18.2406 44.3451 18.2717C44.4864 18.2924 44.6176 18.2044 44.7387 18.0073C44.87 17.8103 44.9356 17.5303 44.9356 17.1674ZM60.6886 19.8893V15.0988C60.2445 15.3788 59.7753 15.7832 59.2807 16.312C58.7962 16.8304 58.4127 17.3437 58.1301 17.8518L56.8735 16.7941C56.9139 16.5246 57.1208 16.1616 57.4942 15.7054C56.4647 15.0003 55.6775 14.9226 55.1325 15.4721C54.7085 15.9491 54.7035 16.6904 55.1173 17.6962C55.5412 18.7021 56.1821 19.5575 57.0401 20.2626L56.6313 20.7914C55.8239 20.0655 55.0265 19.1998 54.2392 18.194C53.452 17.1778 53.028 16.4364 52.9675 15.9698C52.9271 15.6483 53.0936 15.2699 53.4671 14.8344C53.8406 14.3885 54.2695 14.0256 54.754 13.7457C55.2384 13.4657 55.6169 13.3724 55.8894 13.4657C56.3537 13.6316 57.0451 14.2123 57.9636 15.2077C58.3774 14.8033 58.8316 14.4507 59.3261 14.15C59.8207 13.8494 60.2747 13.6679 60.6886 13.6057V11.7704H52.589V10.2772H63.7467V11.7704H62.5663V20.7603L60.6886 19.8893ZM63.6048 11.7704V10.2772H67.799V11.7704H66.6333V20.7758L64.7556 19.9049V11.7704H63.6048ZM67.6706 11.7704V10.2772H73.2729C72.7176 10.018 72.2178 9.66545 71.7737 9.21958C71.3396 8.76335 71.1226 8.37451 71.1226 8.05307C71.1226 7.56572 71.4106 7.1043 71.986 6.6688C72.5608 6.22293 73.096 6 73.5905 6C73.8631 6 74.61 6.47179 75.8312 7.41537L75.5888 7.78866C74.7815 7.32205 74.2061 7.08875 73.8631 7.08875C73.6206 7.08875 73.3888 7.2391 73.1664 7.5398C72.9447 7.8405 72.8335 8.13083 72.8335 8.4108C72.8335 8.49375 72.8435 8.5767 72.8636 8.65965C72.8837 8.73224 72.9245 8.81519 72.9849 8.90851C73.0558 9.00183 73.1108 9.08478 73.1516 9.15737C73.2019 9.21958 73.2829 9.30772 73.3935 9.42178C73.5148 9.53583 73.6058 9.62397 73.6662 9.68619C73.7271 9.73803 73.8377 9.83654 73.9991 9.9817C74.1606 10.1165 74.2717 10.215 74.3327 10.2772H76.7852V11.7704H74.5142L74.5597 13.9323H71.1835C70.941 13.9323 70.7441 14.1345 70.5927 14.5389C70.4111 15.0055 70.4212 15.3581 70.6234 15.5965C70.7748 15.7728 71.0019 15.8194 71.3047 15.7365C71.4455 15.695 71.769 15.5914 72.2734 15.4254C72.7879 15.2492 73.2321 15.1144 73.6058 15.021C73.979 14.9173 74.2014 14.8862 74.2717 14.9277C74.9483 15.4358 75.6444 16.058 76.3611 16.7941C76.4315 16.8667 76.4723 16.9808 76.4824 17.1363C76.5025 17.2815 76.4871 17.4526 76.4368 17.6496C76.3866 17.8362 76.3109 18.0384 76.2097 18.2562C76.1086 18.4635 75.9625 18.671 75.7709 18.8783C75.5888 19.0753 75.3818 19.262 75.15 19.4382C74.9276 19.6042 74.6556 19.7442 74.3327 19.8582C74.0192 19.9722 73.6863 20.0397 73.3332 20.0604C74.5343 21.0662 75.3924 21.7402 75.9069 22.0823L75.3161 22.7356C74.3374 21.8128 73.3586 20.9314 72.3793 20.0915C72.319 20.0915 72.1475 20.107 71.8648 20.1382C71.5821 20.1693 71.3751 20.1848 71.2438 20.1848C71.1125 20.1848 70.9363 20.1848 70.7139 20.1848C70.5022 20.1848 70.3307 20.1589 70.1994 20.107C70.0681 20.0655 69.9623 20.0033 69.8812 19.9204C69.2958 19.402 69.003 18.9198 69.003 18.4739C69.003 18.3495 69.1243 18.168 69.3667 17.9296C69.6086 17.6911 69.8511 17.5407 70.0936 17.4785C70.2952 17.5822 70.8097 17.971 71.6377 18.645C72.2433 18.7694 72.8636 18.7021 73.5 18.4428C74.1458 18.1732 74.6201 17.8362 74.9229 17.4318C75.2257 17.0171 75.2511 16.6801 74.9986 16.4209C74.8371 16.2549 74.5745 16.2291 74.2114 16.3431C73.8477 16.4468 73.4846 16.6075 73.1215 16.8253C72.7578 17.043 72.3846 17.2141 72.0008 17.3385C71.6276 17.4526 71.3497 17.437 71.1681 17.2919C70.0983 16.4105 69.3667 15.7521 68.9729 15.3166C68.7913 15.047 68.731 14.7151 68.7913 14.3211C68.8516 13.9271 69.0083 13.5538 69.2609 13.2013C69.5229 12.8384 69.7854 12.6465 70.048 12.6258L72.8335 12.4547V11.7704H67.6706Z" fill="url(#paint0_linear_1262_426)"/>
<mask id="mask0_1262_426" style="mask-type:luminance" maskUnits="userSpaceOnUse" x="73" y="-1" width="13" height="12">
<path d="M73.7852 6.69727L81.7666 -0.0015942L85.2529 4.15214L77.2714 10.851L73.7852 6.69727Z" fill="white"/>
</mask>
<g mask="url(#mask0_1262_426)">
<path d="M81.6168 6.88579C79.8761 9.20913 76.4298 9.56482 76.4298 9.56482C76.4298 9.56482 75.8071 6.1554 77.5465 3.83194C79.2871 1.50996 82.7335 1.15292 82.7335 1.15292C82.7335 1.15292 83.3575 4.56246 81.6168 6.88579Z" fill="#71B423"/>
<path d="M81.6168 6.88579C79.8761 9.20913 76.4298 9.56482 76.4298 9.56482C76.4298 9.56482 75.8071 6.1554 77.5465 3.83194C79.2871 1.50996 82.7335 1.15292 82.7335 1.15292C82.7335 1.15292 83.3575 4.56246 81.6168 6.88579Z" fill="#71B423"/>
</g>
<path d="M80.6983 7.42731C80.2543 7.79995 79.7281 8.05811 79.3524 7.68834C78.702 7.05128 78.9546 5.77207 79.2996 5.06137C79.7896 4.05304 80.4271 3.19362 81.262 2.49291C81.4693 2.31897 81.6907 2.15447 81.9237 1.99918C82.1137 1.87363 82.3165 1.73484 82.4235 1.64508C82.4729 1.60361 82.5009 1.57257 82.4993 1.55876C82.5878 2.1973 82.8375 4.77588 81.4634 6.61047C81.3179 6.80552 81.0302 7.14876 80.6983 7.42731Z" fill="#A9CF16"/>
<mask id="mask1_1262_426" style="mask-type:luminance" maskUnits="userSpaceOnUse" x="77" y="0" width="6" height="6">
<path d="M77.3721 3.6875L81.7662 -0.000525236L82.8755 1.32112L78.4813 5.00914L77.3721 3.6875Z" fill="white"/>
</mask>
<g mask="url(#mask1_1262_426)">
<path d="M82.736 1.16877C82.736 1.16877 82.736 1.16877 82.7354 1.16803C82.7341 1.15904 82.7332 1.15349 82.7332 1.15349L82.736 1.16877ZM77.5463 3.83252C77.7999 3.49519 78.0882 3.19916 78.3979 2.94054C78.0888 3.1999 77.7999 3.49519 77.5463 3.83252Z" fill="#D3D2D2"/>
</g>
<mask id="mask2_1262_426" style="mask-type:luminance" maskUnits="userSpaceOnUse" x="73" y="-1" width="12" height="12">
<path d="M73.7852 6.69727L81.7666 -0.0015942L84.9359 3.77453L76.9545 10.4734L73.7852 6.69727Z" fill="white"/>
</mask>
<g mask="url(#mask2_1262_426)">
<path d="M78.2363 9.14109C77.2217 9.48232 76.4292 9.56413 76.4292 9.56413C76.4292 9.56413 75.8065 6.15471 77.5459 3.83125C77.7996 3.49392 78.0885 3.19863 78.3975 2.93927L78.3982 2.93865C80.2162 1.41281 82.7329 1.15223 82.7329 1.15223C82.7329 1.15223 82.7338 1.15777 82.735 1.16677C81.7487 1.48929 80.8364 2.05133 80.0413 2.71862C79.9019 2.83561 79.7656 2.95629 79.6333 3.07868C78.5686 4.07028 77.6712 5.18175 77.3347 6.62448C77.1201 7.54751 77.5424 8.51799 78.221 9.12882L78.2363 9.14109Z" fill="#5D951C"/>
</g>
<defs>
<linearGradient id="paint0_linear_1262_426" x1="-4.23322" y1="15.4697" x2="90.1623" y2="26.6233" gradientUnits="userSpaceOnUse">
<stop stop-color="#4CAF50"/>
<stop offset="1" stop-color="#007800"/>
</linearGradient>
</defs>
</svg>
